<?xml version="1.0" encoding="UTF-8"?>
<svg xmlns="http://www.w3.org/2000/svg" width="512" height="512" viewBox="0 0 512 512">
  <rect width="512" height="512" fill="#FFFFFF"/>
  <g fill="#1E5FFF" transform="translate(36,176)">
    <g transform="translate(0,0)"><rect x="0" y="0" width="16" height="120"/><rect x="0" y="0" width="44" height="16"/><rect x="0" y="52" width="36" height="16"/></g>
    <g transform="translate(56,0)"><rect x="14" y="0" width="16" height="120"/><rect x="0" y="0" width="44" height="16"/><rect x="0" y="104" width="44" height="16"/></g>
    <g transform="translate(112,0)"><rect x="0" y="0" width="16" height="120"/><rect x="0" y="0" width="44" height="16"/><rect x="28" y="0" width="16" height="60"/><rect x="0" y="44" width="44" height="16"/><path d="M18,68 L34,68 L44,120 L28,120 Z"/></g>
    <g transform="translate(168,0)"><rect x="0" y="24" width="16" height="96"/><rect x="28" y="24" width="16" height="96"/><rect x="0" y="24" width="44" height="16"/><rect x="4" y="68" width="36" height="16"/></g>
    <g transform="translate(224,0)"><rect x="14" y="16" width="16" height="104"/><rect x="0" y="0" width="44" height="16"/></g>
    <g transform="translate(280,0)"><rect x="0" y="0" width="44" height="120" rx="4"/><rect x="8" y="16" width="28" height="88" fill="#FFFFFF" rx="2"/></g>
    <g transform="translate(336,0)"><rect x="0" y="0" width="16" height="120"/><rect x="0" y="0" width="44" height="16"/><rect x="28" y="0" width="16" height="60"/><rect x="0" y="44" width="44" height="16"/><path d="M18,68 L34,68 L44,120 L28,120 Z"/></g>
    <g transform="translate(392,0)"><rect x="0" y="24" width="16" height="96"/><rect x="28" y="24" width="16" height="96"/><rect x="0" y="24" width="44" height="16"/><rect x="4" y="68" width="36" height="16"/></g>
    <g transform="translate(448,0)"><rect x="0" y="0" width="16" height="120"/><rect x="0" y="104" width="44" height="16"/></g>
  </g>
</svg>
