<?xml version="1.0" encoding="UTF-8"?>
<svg xmlns="http://www.w3.org/2000/svg" width="512" height="512" viewBox="0 0 512 512">
  <!-- Beyaz arka plan -->
  <rect width="512" height="512" fill="#FFFFFF"/>
  <!-- Metin: FIRAT ORAL (tamamen vektör, düz mavi; gradyan, stroke, rx yok) -->
  <g fill="#1E5FFF" transform="translate(36,176)">
    <!-- F -->
    <rect x="0" y="0" width="16" height="120"/>
    <rect x="0" y="0" width="44" height="16"/>
    <rect x="0" y="52" width="36" height="16"/>

    <!-- I -->
    <rect x="70" y="0" width="16" height="120"/>
    <rect x="56" y="0" width="44" height="16"/>
    <rect x="56" y="104" width="44" height="16"/>

    <!-- R -->
    <rect x="112" y="0" width="16" height="120"/>
    <rect x="112" y="0" width="44" height="16"/>
    <rect x="140" y="0" width="16" height="60"/>
    <rect x="112" y="44" width="44" height="16"/>
    <path d="M130,68 L146,68 L156,120 L140,120 Z"/>

    <!-- A -->
    <rect x="168" y="24" width="16" height="96"/>
    <rect x="196" y="24" width="16" height="96"/>
    <rect x="168" y="24" width="44" height="16"/>
    <rect x="172" y="68" width="36" height="16"/>

    <!-- T -->
    <rect x="238" y="16" width="16" height="104"/>
    <rect x="224" y="0" width="44" height="16"/>

    <!-- O -->
    <rect x="280" y="0" width="44" height="120"/>
    <rect x="288" y="16" width="28" height="88" fill="#FFFFFF"/>

    <!-- R -->
    <rect x="336" y="0" width="16" height="120"/>
    <rect x="336" y="0" width="44" height="16"/>
    <rect x="364" y="0" width="16" height="60"/>
    <rect x="336" y="44" width="44" height="16"/>
    <path d="M354,68 L370,68 L380,120 L364,120 Z"/>

    <!-- A -->
    <rect x="392" y="24" width="16" height="96"/>
    <rect x="420" y="24" width="16" height="96"/>
    <rect x="392" y="24" width="44" height="16"/>
    <rect x="396" y="68" width="36" height="16"/>

    <!-- L -->
    <rect x="448" y="0" width="16" height="120"/>
    <rect x="448" y="104" width="44" height="16"/>
  </g>
</svg>
