<?xml version="1.0" encoding="UTF-8"?>
<svg xmlns="http://www.w3.org/2000/svg" width="512" height="512" viewBox="0 0 512 512">
  <!-- Beyaz arka plan -->
  <rect width="512" height="512" fill="#FFFFFF"/>

  <!-- Mavi gradyan tanımı (BIMI ile uyumlu basit linearGradient) -->
  <defs>
    <linearGradient id="g" x1="0" y1="0" x2="1" y2="1">
      <stop offset="0%" stop-color="#3AA0FF"/>
      <stop offset="100%" stop-color="#1E5FFF"/>
    </linearGradient>
  </defs>

  <!-- Yazı alanı (merkezde) -->
  <g transform="translate(36,176)">
    <!-- Harf ölçüleri -->
    <!-- Her harf kutusu: 44x120, kalınlık: 16, aralık: 12 -->

    <!-- F -->
    <g fill="url(#g)" transform="translate(0,0)">
      <rect x="0" y="0" width="16" height="120" rx="2"/>
      <rect x="0" y="0" width="44" height="16" rx="2"/>
      <rect x="0" y="52" width="36" height="16" rx="2"/>
    </g>

    <!-- I -->
    <g fill="url(#g)" transform="translate(56,0)">
      <rect x="14" y="0" width="16" height="120" rx="2"/>
      <rect x="0" y="0" width="44" height="16" rx="2"/>
      <rect x="0" y="104" width="44" height="16" rx="2"/>
    </g>

    <!-- R -->
    <g fill="url(#g)" transform="translate(112,0)">
      <rect x="0" y="0" width="16" height="120" rx="2"/>
      <rect x="0" y="0" width="44" height="16" rx="2"/>
      <rect x="28" y="0" width="16" height="60" rx="2"/>
      <rect x="0" y="44" width="44" height="16" rx="2"/>
      <!-- diyagonal bacak -->
      <path d="M18,68 L34,68 L44,120 L28,120 Z"/>
    </g>

    <!-- A -->
    <g fill="url(#g)" transform="translate(168,0)">
      <rect x="0" y="24" width="16" height="96" rx="2"/>
      <rect x="28" y="24" width="16" height="96" rx="2"/>
      <rect x="0" y="24" width="44" height="16" rx="2"/>
      <rect x="4" y="68" width="36" height="16" rx="2"/>
    </g>

    <!-- T -->
    <g fill="url(#g)" transform="translate(224,0)">
      <rect x="14" y="16" width="16" height="104" rx="2"/>
      <rect x="0" y="0" width="44" height="16" rx="2"/>
    </g>

    <!-- O -->
    <g fill="url(#g)" transform="translate(280,0)">
      <!-- dış çerçeve -->
      <rect x="0" y="0" width="44" height="120" rx="4"/>
      <!-- iç boşluk (beyazla del) -->
      <rect x="8" y="16" width="28" height="88" fill="#FFFFFF" rx="2"/>
    </g>

    <!-- R -->
    <g fill="url(#g)" transform="translate(336,0)">
      <rect x="0" y="0" width="16" height="120" rx="2"/>
      <rect x="0" y="0" width="44" height="16" rx="2"/>
      <rect x="28" y="0" width="16" height="60" rx="2"/>
      <rect x="0" y="44" width="44" height="16" rx="2"/>
      <path d="M18,68 L34,68 L44,120 L28,120 Z"/>
    </g>

    <!-- A -->
    <g fill="url(#g)" transform="translate(392,0)">
      <rect x="0" y="24" width="16" height="96" rx="2"/>
      <rect x="28" y="24" width="16" height="96" rx="2"/>
      <rect x="0" y="24" width="44" height="16" rx="2"/>
      <rect x="4" y="68" width="36" height="16" rx="2"/>
    </g>

    <!-- L -->
    <g fill="url(#g)" transform="translate(448,0)">
      <rect x="0" y="0" width="16" height="120" rx="2"/>
      <rect x="0" y="104" width="44" height="16" rx="2"/>
    </g>
  </g>
</svg>
